# xmcd
#
# Track frame offsets:
#	150
#	23580
#	48281
#	63044
#	80493
#	105435
#	131909
#	155613
#
# Disc length: 2345 seconds
#
# Revision: 0
# Processed by: cddbd v1.5.2PL0 Copyright (c) Steve Scherf et al.
# Submitted via: audiograbber 1.83.01
#
DISCID=5a092708
DTITLE=Various Artist - Thomas D Reflektor Falke - Lektionen in Demut and R.Kelly TP-2.C
DTITLE=OM
DYEAR=2004
DGENRE=Other
TTITLE0=Lektionen in Demut - Thomas D
TTITLE1=Uns trennt das Leben - Thomas D
TTITLE2=Fiesta - R.Kelly
TTITLE3=One Me - R.Kelly
TTITLE4=I Wish - R.Kelly
TTITLE5=A Woman´s Threat - R.Kelly
TTITLE6=I Wish Remix (To the Homies that we lost) - R.Kelly
TTITLE7=The Storm is over now - R.Kelly
EXTD=CD-Mix aus den CD´s:\n\nReflektorFalke - Lektionen in Demut von Thomas D\n
EXTD=+\nTP-2.COM von R.Kelly
EXTT0=
EXTT1=
EXTT2=
EXTT3=
EXTT4=
EXTT5=
EXTT6=
EXTT7=
PLAYORDER=
